<?xml version="1.0" encoding="UTF-8"?>
<svg id="Layer_2" data-name="Layer 2" xmlns="http://www.w3.org/2000/svg" viewBox="0 0 177.91 125.08">
  <defs>
    <style>
      .cls-1 {
        fill: #231f20;
      }

      .cls-1, .cls-2, .cls-3 {
        fill-rule: evenodd;
      }

      .cls-1, .cls-2, .cls-3, .cls-4 {
        stroke-width: 0px;
      }

      .cls-2, .cls-4 {
        fill: #d6bf00;
      }

      .cls-3 {
        fill: #efe09f;
      }
    </style>
  </defs>
  <g id="Layer_1-2" data-name="Layer 1">
    <g>
      <g>
        <path class="cls-1" d="m10.98,57.18c3.79-1.81.72,1.32,2.91-1.46,2.18-2.78.76,1.58-2.33-.76-3.1-2.34-1.87.33.3-2.46,2.17-2.79-1.57.69,1.14-1.86,2.72-2.55-.38,1.08-.89-2.06-.51-3.14,3.39-.74,5.61-3.5,2.21-2.77.09-1.15.39-4.3.29-3.15-.31.03-.47-3.12-.16-3.16.39-1.14,2.74-3.86,2.35-2.72-.64-3.28,2.67-5.48,3.31-2.2,3.37,1.75,7.24.03,3.87-1.73-2.85-3.04,1.36-4.35,4.21-1.31,1.5.77,4.05-1.86,2.55-2.63,4,.02,7.87-1.7,3.87-1.73,1.45-1.13,4.25-3.63,2.81-2.51-2.9-2.03.92-3.79,3.82-1.77,1.47-.06,5.85-1.07,4.38-1,1.32.82,5.69-.21,4.37-1.03-.61.18,4-.02,4.61-.19,1.39-2.31,6.01-2.12,4.61.18,2.74,3.77,6.79,2.25,4.05-1.52-.9-1.03,3.05-2.67,3.95-1.64.49-2.57,4.9-3.51,4.41-.93,1.89.74,6.25,1.78,4.37,1.04.33-.85,3.89,1.17,3.56,2.01.23,1.69,4.62.7,4.39-.98,1.21,1.29,5.42-.02,4.21-1.31,1.25-4.07,5.62-3.05,4.37,1.02.29,1.59,2.84,4.22,2.55,2.63.9.1,3.88,2.51,2.98,2.41,1.94-.99,4.99,1.38,3.05,2.37-3.29,1.44.95,2.68,4.25,1.25-.11,1.87,3.39-.19,3.5-2.06-1.13.85,2.36-1.22,3.5-2.06-1.93-2.79,2.29-1.5,4.22,1.29-.1-.5,1.82,2.37,1.92,2.87,0,1.33,3.23,3.6,3.22,2.26,3.52.16,7.6,1.64,4.08,1.48-.44,3.18,4,4.05,4.44.87.5-1.37,4.78-.17,4.28,1.2.62-1.2,2.25,1.75,1.62,2.96-.15-.96-.44,2.19-.3,3.15.32-1.31-1,1.71-1.32,3.03,4.02-.58,1.93,2.23-2.08,2.82-2.61-1.6-.47,1.2,2.14,2.8-3.44,1.34.24,3.25,3.68,1.91.52-.56,4.04,1.49,3.52,2.05,3.46-1.94,6.43.48,2.97,2.41-1.08.1,1.43,2.75,2.51,2.65-2.03-.68-2.42,2.46-.39,3.15,1,.93.93,4.09-.07,3.16.79,2.63,3.43,5.22,2.64,2.59,2.99,2.27,3.19,5.42.2,3.16-1.32,2.48-2.84,5.46-1.52,2.98-.14,2.58-2.47,5.31-2.32,2.73.18,1.18-2.42,3.79-2.6,2.61.91-.99.36,2.15-.55,3.13-4.27-.48-3.43,2.62.84,3.1,1.15.15,1.85,3.27.69,3.12-.17-.34-.69,2.79-.52,3.14,5.29,1.22,1.45,2.98-3.84,1.76.74-2.38-3.87-2.11-4.6.28,2.29,1.19-2.31,1.47-4.61.28-3.5-1.87-3.91,1.27-.41,3.14,3.97-.4,5.23,2.63,1.26,3.04,2.01,1.92-1.16,4.22-3.17,2.3-.49-.31-4.33,1.45-3.83,1.76-1.23-1.24-2.98,1.69-1.75,2.92-1-.96-4.02,1.43-3.01,2.39,2.42.96-2.19,1.17-4.61.21.64,1.77-3.84,2.53-4.49.76-3.24-2.69-6.7-.59-3.45,2.09,2.17,2.07-1.76,3.73-3.92,1.66-1.28-1.88-2.47,1.18-1.18,3.05,1.46-.02-1.38,2.47-2.84,2.5-1.46-.91-2.8,2.11-1.34,3.02,3.32-.79-1.26-.38-4.58.41,1.02,3.57-3.55,3.12-4.58-.44.96-3.53-3.61-3.04-4.57.49.96-.16-2.83,1.65-3.79,1.81-.53-.53-5.06.09-4.53.62-1.14,2.6-5.7,2.08-4.56-.53.39.87-4.23.88-4.62.02,1.25.11-3.32.57-4.57.46.37-.59-3.68-2.12-4.05-1.53.67-.07-3.92.32-4.59.38-.41-1.01-5-.62-4.59.38,1.45.52-2.53,2.12-3.99,1.59.03,1.28-3.96-.32-3.99-1.6.48,1.16-3.37-.59-3.85-1.75,1.18-1.37-3.26-2.24-4.44-.87-.1-.82-4.72-.77-4.62.06,1.06-.11-2.69,1.75-3.74,1.85.02-1.59-4.55-1.15-4.57.44-.37.95-3.31-1.49-2.93-2.44-1.34-.15-5.89-.69-4.55-.55.91-2.33-3.66-2.82-4.57-.49-3.83,2.66-5.16-.37-1.32-3.02,4.06-.75,3.4-3.87-.66-3.12-1.23-2.4-5.27-3.93-4.04-1.53-6.27,1.05-8.89-1.55-2.63-2.6,1.88-3.22-2.73-3.49-4.61-.26-.56,1.05-5.09.42-4.53-.63.31-1.6-1.31-4.55-1.62-2.95-3.13-1.91-4.07-5-.94-3.09-.93-.58-3.91-2.99-2.98-2.41,3.25-1.72-.13-3.88-3.38-2.16-1.16,1.53-1.74-1.6-.58-3.13-2.78.21-3.36-2.92-.58-3.13-.04-1.03-.45-4.17-.41-3.14-2.41-1.33-1.34-4.4,1.07-3.07.38-.39,2.84-3.06,2.46-2.67,4.76.32,2.7-2.5-2.05-2.83-1.66.92-2.36-2.2-.71-3.12-1.67-.19,2.11-2Z"/>
        <path class="cls-4" d="m80.65,125.08l-5.91-2.51c-1.28-.17-2.41-.69-3.17-1.03-.73-.33-2.07-.94-3.13-2.07-.39-.09-.78-.19-1.18-.31-.51.38-1.08.73-1.73,1.05-1.24.61-3.82,1.89-6.58.48-.4-.21-.84-.49-1.26-.87l-3.77,1.18-2.19-3.51c-.84.07-1.81.06-2.98-.08-1-.12-3.42-.41-5.12-2.24-1.27.5-2.54.57-3.81.18-2.66-.81-3.65-3.09-4.19-4.31-.94-2.16-.71-3.92-.3-5.08-.19.01-.41.04-.66.06-1.89.19-5.41.54-8.65-2.66-.37-.37-.8-.84-1.18-1.42-1.31.17-2.6-.01-3.58-.15-1.41-.2-4.71-.66-6.13-3.79-.64-1.42-.69-2.88-.14-4.37-.9-.67-2.14-1.78-3.05-3.88-.79-.35-1.65-.87-2.61-1.64-2.14-1.73-2.77-3.59-2.83-5.05-.09-.11-.17-.23-.26-.35-.24-.35-.43-.72-.58-1.1-1.79-.94-3.03-2.71-3.47-5.1-.32-1.73-.42-2.43-.37-3.36,0-.06-.01-.19-.04-.43-1.86-1.92-2.25-4.44-1.17-7.54.46-1.33,1.17-3.33,3.03-4.47l-1.92-1.93,1.48-3.1-1.03-.8,3.26-4.27c.29-.38.74-.87,1.36-1.29-.38-2.55.45-4.29,1.22-5.31,1.41-1.85,3.35-2.39,4.69-2.6,0-.22,0-.45.02-.68-.36-1.07-.42-2.09-.46-2.79-.09-1.77-.28-5.44,3.71-7.35.05-2.78,1.37-4.94,4.09-6.76,2.08-1.39,3.93-1.7,5.44-1.57.83-1.58,2.35-2.72,4.56-3.4.66-.2,1.24-.36,1.79-.48,3.2-3.29,6.54-2.93,8.15-2.76.82.09.92.1,1.38-.1.27-.12.48-.22.65-.3.02-.03.04-.06.06-.09-.11-.56-.11-1.09-.07-1.56.3-3.52,3.44-4.97,4.47-5.45,2.43-1.13,3.9-1.59,5.91-1.24.16-.02.48-.07,1-.19,2.04-.47,3.73-.65,5.36-.14.09-.02.19-.04.3-.07,1.46-.34,3.25-.77,4.89-.31,2-1.87,4.5-2.06,6.57-1.98,2.2.09,3.81.68,4.97,1.39.81-.62,1.67-1.01,2.3-1.28,1.37-2.57,3.83-3.43,6.12-3.92,2.64-.56,5.44-.89,8.08,1.61l1.26-.98,3.29,2.13c.12.08.44.29,1.29.76.13.08.26.15.38.22.13-.03.26-.06.4-.09,1.09-.24,2.94-.66,4.85-.15,1.7-2.87,4.59-3.85,8.61-2.91,1.41.33,4.05.94,5.5,3.41.49.83.76,1.72.81,2.67.57.27,1.13.62,1.7,1.04,1.56-.17,3.13.25,4.73,1.25l.06-.71,4.35-.52c1.17-.14,2.35.12,3.38.68.13.04.3.1.52.17.8.25,1.25.37,1.48.43,3.49.92,4.31,3.89,4.25,5.5v.19s.83.59.83.59c.08.06.15.1.2.14.03,0,.05,0,.08,0,1.52-.1,3.36-.12,6.06.86,2.02.74,3.51,1.86,4.41,3.29,1.09-.1,2.4.02,3.98.46.03,0,.06.02.09.02,1.39-.12,2.81.27,3.95,1.18l3.46,2.74-1.06,2.12c.52,1.27.52,2.53.17,3.65.47.96.83,2.39.28,4.14.03.01.05.03.08.04,2.75-1.11,5.42-.64,7.95,1.42.93.75,2.83,2.3,3.12,4.69,1.27,1.93,1.42,3.86.46,5.75-.26.5-.77,1.3-1.66,1.95.02.29.03.58.03.84.48.39,1.1.92,1.81,1.62.43.42.79.75,1.1,1.04,2.5,2.32,3.44,3.86,3.7,7.88.24,3.81-1.15,5.77-2.7,7.32-.37.37-.5.51-.72.93-.29.57-.32.71-.38,1.02-.34,1.73-.88,3.09-2.79,5.33-.16.62-.4,1.18-.72,1.7,0,.52-.03,1.08-.14,1.68-.22,1.25-.76,2.54-1.68,3.59.02.07.03.13.04.19.13.58.29,1.29.34,2.07,1.36,1.17,1.72,2.7,1.81,3.31.62,4.17-3.17,5.9-4.42,6.47-.16.08-.38.18-.65.28.19,2.23-.97,4.22-3.47,5.96-.27.19-.59.41-.98.69-1.1.8-3.07,2.22-5.36,2.04-.29.13-.66.3-1.1.46-.74,1.03-1.98,2.31-3.98,2.7-.13.02-.26.05-.4.06-.56.59-1.26,1.06-2.07,1.36-.62.23-1.27.36-1.91.38-1.62,1.68-3.86,2.06-4.79,2.22-1.38.23-2.56.23-3.57.08-.96,1.35-2.34,2.1-3.2,2.5l-.64.91c-.47.67-1.07,1.22-1.74,1.61-.12.1-.28.24-.49.42-.19.17-.38.33-.57.47-.44,1.16-1.23,2.22-2.32,3-.88.63-1.86,1-2.85,1.12-2.12,1.96-4.96,1.68-5.96,1.58-1.78-.17-3.23-.69-4.36-1.54-1.41.61-3.67,1.35-5.81.4-1.98,2.06-4.58,2.13-6.26,1.99-1.57.81-3.3.82-4.41.83-1.1.37-2.18.48-2.84.54-2.03.21-4.79.49-6.75-1.89-.36.05-.68.07-.94.1-.86.07-2.26.19-3.68-.12-.64.47-1.41.89-2.3,1.25-.18.07-.33.14-.44.19l-2.05,2.34Zm10.03-15.41c.76,0,1.61.15,2.57.53.26.1.65.26,1.24.48.49.18,1.54.58,2.58,1.37.58-.09,1.14-.13,1.64-.15,1.63-1.12,3.53-1.08,5.04-.93,1.25-1.06,2.89-1.69,5.04-1.99.94-.13,1.97-.21,3.02-.11,1.48-1.26,3.52-1.48,4.52-1.59l.52-.05c.78-.08,2.68-.29,4.48.53.59-.23,1.24-.41,1.94-.52.45-.34.98-.63,1.61-.83.16-1.15.68-2.26,1.53-3.14l3.07-3.17.13.08c.51-.51,1.12-.98,1.83-1.41,2.73-1.65,5.23-1.91,7.59-.76,1.38-1.37,3.19-1.76,4.48-1.89.03-.03.06-.05.09-.08,1.18-.94,2.29-1.48,3.32-1.75l.76-2.97,1.52.26c-.33-.9-.52-2.04-.34-3.42.05-.4.07-.67.08-.87.05-.79.21-3.18,2.55-4.69.93-.6,2.4-1.17,4.32-.71.3-.19.61-.35.92-.48-.11-.33-.19-.62-.24-.83-.83-3.06.18-5.04,1.17-6.17.39-.45.81-.8,1.24-1.07.37-.8.97-1.65,1.86-2.54l.2-.2.03-.03c.43-1.39,1.29-2.49,2.1-3.45.21-.25.35-.42.44-.54.18-.91.47-2.03,1.33-3.72.77-1.5,1.58-2.48,2.2-3.14-.06-.06-.13-.12-.21-.19-.37-.34-.8-.74-1.31-1.25-.54-.53-.98-.88-1.4-1.22-2.24-1.81-3.58-3.61-3.65-7.29-1.03-1.64-1.06-3.41-.97-4.56-.85-.2-1.76-.55-2.73-1.12-.01,0-.03-.02-.04-.02-1.56-.19-2.94-.91-3.77-1.34-1.11-.57-4.48-2.33-4.18-6.16,0-.13.03-.29.06-.47-.25-.65-.39-1.35-.4-2.08v-.08c-.24-.73-.38-1.64-.25-2.7-.34-.04-.7-.1-1.08-.17-3.84-.76-5.46-2.7-6.1-4.53-.11,0-.23.01-.37.02-1.88.12-4.14.08-7.19-2.06l-.95-.66c-.74-.51-1.39-.96-1.95-1.57l-.05.64-4.41.62c-1.62.2-3.19-.34-4.34-1.38-1.2-.35-3.54-1.13-4.62-3.24-1.44-.48-2.49-1.34-3.01-1.76-.07-.06-.13-.11-.19-.15-1.91-.47-3.18-1.79-4.17-2.8-.25-.25-.47-.51-.68-.77-.65.38-1.42.72-2.31,1-1.31.41-3.7,1.15-6.03.18-.84.2-1.14.32-1.26.37-2.33.98-4.72.48-6.41-1.31-.08-.06-.27-.18-.59-.37-.13-.07-.25-.14-.36-.2-.79-.09-1.53-.27-2.13-.41-1.64-.39-2.81-.91-3.71-1.47-.7.92-1.62,1.68-2.82,2.32-1.14,2.08-3.36,2.92-4.52,3.35-3.57,1.34-6.45.81-8.79-1.62-1.42,1.15-3.24,1.72-5.67,1.83-.8.03-1.89.08-3-.12-2.11.5-3.79.68-5.42.15-.09.02-.19.04-.3.07-.82.19-1.52.31-2.13.39-.36,1.02-1.04,2.14-2.26,3.24-.26.23-.4.38-.47.45-1.18,2.18-2.75,3-5.18,4.08-2.91,1.3-5.19,1.16-6.64,1.01-.2.21-.32.36-.41.46-.62.71-1.26,1.21-1.9,1.53-.3,1.5-1.3,3.56-4.33,4.91-2.5,1.12-4.55,1.05-6.08.67-.32,1.05-.92,2.18-1.95,3.38-.34.39-.67.74-.99,1.04.15.85.12,1.68.05,2.42,1.75,3.5-.64,6.48-1.59,7.66-.39.49-.81.91-1.23,1.28l.69,1-1.75,1.41c1.06,1.88.93,4.3-.52,6.19-.42.55-.93,1.04-1.51,1.44l-.55.95c.5,1.3.64,2.89-.36,4.64-.49.85-1.87,2.69-4.74,2.75-.06.06-.12.12-.17.17.27.67.48,1.46.6,2.38.09.69.15,1.22.18,1.64,1.33.66,2.36,1.77,3.01,3.25,2.69,1.75,3.38,3.81,3.44,5.37,1.76,1.26,2.4,3.21,2.74,4.29,1.14.81,2.45,1.88,3.67,4.09.21.39.42.82.58,1.3.51,0,.99.03,1.39.05,1.8.1,4.8.28,6.46,3.01.26.42.5.94.66,1.55,1.54-.12,3.62-.12,6.11.82.79.3,1.44.5,2.01.67,3.55,1.1,5.66,2.57,6.63,7.18.05.25.09.49.12.73.85.37,1.71.93,2.41,1.81,3.03-.78,5.16.7,6.95,2.18.07.06.16.13.25.21.84-.03,1.61.05,2.29.2,1.46-.74,3.09-.76,3.85-.77l1.79-.02c1.03-.01,2.63-.04,4.05.76.16.04.36.08.61.13,1.53.3,3.65.71,5.03,2.33.54.09,1.05.23,1.5.38,1.57-1.47,3.83-1.66,5.12-1.77,1.07-.09,2.96-.25,4.7.42.7-.45,1.61-.8,2.76-.8Zm36.99-4.8c-.42.2-.82.45-1.18.76.41-.28.81-.51,1.18-.69,0-.02,0-.04,0-.06Zm43.25-30.26h0s0,0,0,0Zm-43.91-56.57s.05.03.07.05c0,0,0,0,0,0l-.07-.04Zm-60.72-3.14l-.02.02s.01-.01.02-.02Zm26.72-1.33s.01.01.02.02c0,0-.01-.02-.02-.02Zm-29.87-7.23h0,0Z"/>
      </g>
      <g>
        <path class="cls-3" d="m43.96,38.83l1.04,1.51,1.47,1.65,1.04,2.32v.8l.61,1.23.09,1.66c-.47.6-.77.96-.89,1.09-.1.09-.38.19-.85.28-1.23.35-2.85,1-4.87,1.94l-.29.09-1.13.95-.38.09-.8.81-1.23.47-.52.57c-.95.57-1.7,1.55-2.27,2.93-.53,1.39-.8,2.84-.8,4.35v3.88c0,1.26.66,2.75,1.99,4.45,1.35,1.67,2.85,2.9,4.49,3.69l8.14,3.27.57.71.52.29.38.56.57.19.29.9c-.29.63-.66.95-1.13.95-.19-.03-.36-.05-.52-.05-.13-.03-.25-.04-.38-.04-.35.06-.65.12-.9.19-.25.07-.47.09-.66.09,0,0-.13-.03-.38-.09-.25-.06-.57-.12-.94-.19-1.58-.48-3.06-1.06-4.45-1.75l-2.46-1.66c-1.39-.82-2.75-1.92-4.07-3.31-1.29-1.38-2.22-2.66-2.79-3.83l-2.22-5.15-.71-1.51v-.19h-.19c-.63-1.76-.95-3.7-.95-5.82,0-1.7.22-3.34.66-4.92.47-1.58,1.09-2.82,1.84-3.73,0,0,.03-.08.09-.23.1-.16.19-.24.29-.24l.52-1.04,1.14-1.47.99-1.46h.47v-.38h.28c.85-.95,1.53-1.59,2.03-1.94.5-.38,1.31-.77,2.41-1.18v-.19c1.26-.44,2.06-.66,2.41-.66.16-.12.4-.19.71-.19l1.47-.66h.28Z"/>
        <path class="cls-3" d="m65.72,51.04l4.59.75,1.94.19,1.23.47,1.33.57.9.71.71.29.47.47h.38l1.37.71.19.47.76.29.61.99c0,.1.05.22.15.38.13.13.27.19.43.19l1.04,2.13.24,1.37.28,4.54.38.56.09,1,.38.85-.28.94.57.81.19,1.37-.09,1.04.19,3.5.52-.19v.56l.67.38,1.28.19.57.29.66.09v.9h-.29v.28l-.9.05-.75.61-1.23-.29-.28.29-2.55-.66-.57.19-.38-.95-.61.95h-.57l-.94-.19-.71.19.29.66-.57.8v.38l-.66.19-1.23-.76-1.04-1.09-.66-1.56h-.29l-1.42,1.28-.9.1-.85.47-1.18.19-.95.9-1.27.19-2.6.29-1.18.19-1.75-.19-.95-.48-.28.19-.76-.14-.61-.43-2.13-2.56-.9-1.23-.29-1.09-.19-1.23-.57-1.46.14-1.94.61-1.75,1.14-2.03.99-.76,1.13-1.04.71-.15.19-.47.99-.28,1.42-.52.8-.05,1.42.38h.99l1.56-.19,2.22.19,1.65.28v-1.94l-.38-3.79-.05-1.7-.57-.99-1.94-.8-2.22-1.84-.95-.76v-.19l.47.09-.09-.47.47.09.28-.28Zm-.14,16.69l-.33.33-.95.19-.71.38-1.51.43-1.66.95-.57.66-.99.9-.09.85-.47.8v.71l-.09.71.28.9.76.85,1.37.43,2.04.14,2.32-.09,3.31-.47,1.14-.05,1.09.14,1.14-.57,1.09-.19.47-.8-.76-1.33-.19-1.37-.14-1.28-.57-1.42-1.94-1.09-1.94-.57-2.08-.14Z"/>
        <path class="cls-3" d="m110.38,39.12l2.41,1.04,2.03,1.75.19-.28c.06.06.13.16.19.28.06.13.52.68,1.37,1.66.13.03.27.19.43.47.19.28.44.58.76.9,0,.31-.02.58-.05.8-.03.19-.06.36-.09.52,0,.13.05.52.14,1.18l-.81,1.94h-.76v.38c-1.61.76-2.63,1.32-3.07,1.7-.41.35-.77.65-1.09.9l-2.13,1.56-1.94,1.28-1.75,2.13c-.66,1.17-1.03,2.07-1.09,2.7h-.09c-.6,1.7-1.25,3.25-1.94,4.64h-.1l-.75,1.28-.85,2.41-.52.38c-.22.47-.5,1.04-.85,1.7-.35.66-.57,1.11-.66,1.33l-.8.66c-.19.95-.29,1.59-.29,1.94l.19.19.1,1.09c.31.69.47,1.69.47,2.98l-.76.61-.76.85-.42-.29-.1.29-.57-1.18-1.75-.57c.25-.5.38-1.09.38-1.75l-.57-1.33c-.82-1.61-1.59-2.8-2.32-3.59l-4.82-4.87-1.94-2.79-2.13-5.44-1.37-2.5c-.09-.29-.27-.65-.52-1.09-.22-.44-.47-.94-.76-1.51l-1.23-1.18-4.16-3.36-1.94-2.04c-.79-.79-1.67-1.25-2.65-1.37l-.38.09-.85-.09-.19-.57.19-.33h.66l1.46-.66,3.17-.85,1.37-.42c0-.19.21-.29.61-.29.29,0,.52.02.71.05h.66c.82,0,1.39-.17,1.7-.52.13-.22.47-.33,1.04-.33.32,0,.58.01.81.05h.75l.9.28,1.14.09.09-.09,2.22.76,2.03,2.04.61,1.28,1.33,1.46c.06.13.2.38.42.76.22.35.47.66.76.94.31.25.69.58,1.14,1v1.56l.71,2.89c.31.25.52.46.61.61.13.16.24.5.33,1.04l.38.19.33,1.37.76,1.28.47,2.41.47.75v.9c.12.28.23.93.33,1.94h-.33l-.1.75.33.1.19,1.56.47,1.23c.29-.76.49-1.33.62-1.7.16-.38.41-.77.76-1.18l2.03-3.97.19-1.28.85-1.61,1.46-3.69.29-.52,1.75-4.45.85-1.94c.25-.69.41-1.31.47-1.84l.9-1.04.57-1.46c.35-.76.63-1.36.85-1.8.22-.47.36-.88.43-1.23.06-.38.19-1.01.38-1.89Z"/>
        <path class="cls-3" d="m134.31,53.45c1.57.57,2.9,1.29,3.97,2.18,1.07.88,1.6,1.67,1.61,2.36v.85c.53.85.8,1.61.8,2.27l-.8,2.04c.38.34.64.96.8,1.84l-1.09.1-.95-.71-.9-.1-.57-.28h-9.6c-.25,1.04-.38,2.62-.38,4.73v2.65l.71,2.51.85,1.75.57.76.71.38.28.61c0,.19.36.44,1.09.76.73.32,1.35.47,1.89.47h1.94l3.69-.38,2.22-.85c.19.32.28.6.28.85,0,.35-.52.79-1.56,1.33-1.01.54-2.22.99-3.64,1.37-.54,0-.99.21-1.37.61l-.38-.28c-.66.25-1.09.57-1.28.94h-.19l-.47,1.28c-.44-.63-.87-1.01-1.28-1.13-.38-.16-1.09-.23-2.13-.23l-1.04-.57-.62.1-.28-.38-1.04.28-.62.57-1.13-.47-.99.47-.95,1.37c-1.01-.44-1.64-.75-1.89-.95-.22-.22-.79-.88-1.7-1.99-.66-.5-1.25-1.8-1.75-3.88-.5-2.08-.76-4.17-.76-6.29s.44-4.7,1.33-7.66l2.18-3.88.56-.19.95-1.33,1.94-1.56,1.09-.57.28-.52c2.8-1.2,4.62-1.79,5.44-1.8-.09,0,1.29.19,4.16.57Zm-6.19,8.98l8.89.29.38-.66c-.25-1.07-.8-1.95-1.65-2.65-.82-.69-1.66-1.04-2.51-1.04-1.51,0-2.74.3-3.69.9-.94.6-1.42,1.44-1.42,2.5v.66Z"/>
      </g>
      <g>
        <path class="cls-2" d="m99.83,79.3l-.17.49c-.1.09-.17.18-.2.27-.02.08-.04.22-.04.42-.04.24-.18.46-.42.66l-.3.44-.32.32-.2.34-.3.13c-.07.02-.2.1-.41.24-.19.12-.34.21-.46.26-.1.04-.28.07-.52.07l1.52.29c.34.05.73.19,1.17.44l1.47,1.01c.42.25.83.59,1.22,1.01.38.43.62.81.71,1.13.24.34.4.63.49.88.09.24.13.68.13,1.33,0,.36-.03.75-.1,1.16l-.62,1.29-.27.3c-.16.23-.29.4-.39.54-.1.14-.22.26-.37.37l-1.31.89c-.26.14-.63.31-1.12.53l-.27-.07-.43.27-.54.49-.85.4-.33.32-.66.34-.39.32h-.17c-.07.15-.14.25-.22.3-.07.07-.17.13-.3.17l-.07-.27-.37-.24c-.1,0-.22-.02-.35-.03-.12,0-.22-.03-.29-.05-.07-.01-.11-.05-.12-.1l-.17-.76s0-.06-.02-.1c-.01-.05-.02-.1-.03-.15,0-.07.02-.14.05-.22-.13-.05-.3-.21-.52-.49-.25-.07-.42-.14-.5-.22-.09-.08-.16-.21-.22-.41.06-.15.09-.3.09-.47,0-.16-.02-.31-.05-.47-.02-.16-.04-.27-.04-.34,0-.13.02-.23.07-.3l.04-1.39-.24-3.26-.32-3.41-.07-.56v-1.42l-.3-1.25-.1-.66c-.08-.34-.12-.65-.12-.93l-.13-1.08-.07-1.06-.9-.3-1.18-.15-.59-.24-.57-.07c-.02-.07-.06-.13-.12-.17-.06-.06-.1-.11-.14-.15l-.3-.76.3-.27.52-.14.86-.1.66.1.36-.07.69-.03,1.03.1,1.84-.03,1.4.17c1.2.29,2.31.69,3.33,1.22.54.33.98.69,1.32,1.1.35.39.52.74.52,1.05,0,.07.02.12.02.18.01.06.02.12.02.18,0,.12-.07.34-.22.66Zm-1.66-1.83l-1-.25-.66.03-.46.29-.56.21-.44-.21c-.05,0-.14.02-.27.07-.12.05-.21.07-.25.07-.13,0-.24.05-.36.14-.1.09-.16.21-.17.36l.42,2.24.03.41v.63l.2.46c.96-.44,1.8-1.05,2.54-1.82.73-.79,1.1-1.47,1.1-2.03,0-.03.02-.1.05-.19.03-.1.05-.17.05-.2,0-.05-.08-.12-.24-.19Zm-3.33,7.33l.25,1.89.07,3.33.24,1.42c.16-.11.36-.18.6-.19.23-.01.39-.04.45-.08l.34-.49.62-.24.36-.42.61-.59c1.09-.9,1.64-1.83,1.64-2.79,0-.08-.01-.21-.03-.39-.26-.2-.4-.34-.42-.42-.72-.42-1.14-.63-1.25-.63l-1-.27h-.17c-.2-.03-.46-.11-.76-.22-.3-.11-.47-.17-.49-.17-.31,0-.66.09-1.05.25Z"/>
        <path class="cls-2" d="m108.68,81.07l1.64.27.69.07.44.17.47.2.32.26.25.1.17.17h.14l.49.25.07.17.27.1.22.36s.02.08.05.13c.04.05.09.07.15.07l.37.76.09.49.1,1.62.13.2.03.35.13.3-.1.34.2.29.07.49-.04.37.07,1.25.19-.07v.21l.24.13.45.07.2.1.24.03v.32h-.1v.1l-.32.02-.27.22-.44-.1-.1.1-.91-.24-.2.07-.14-.34-.22.34h-.2l-.34-.07-.25.07.1.24-.2.29v.14l-.24.07-.44-.27-.37-.39-.24-.56h-.1l-.51.46-.32.03-.3.17-.42.07-.34.32-.46.07-.93.1-.42.07-.62-.07-.34-.17-.1.07-.27-.05-.22-.15-.76-.91-.32-.44-.1-.39-.07-.44-.2-.52.05-.69.22-.62.41-.73.36-.27.4-.37.26-.05.07-.16.35-.1.51-.19h.29s.51.12.51.12h.35l.56-.07.79.07.59.1v-.69l-.13-1.35v-.61s-.22-.36-.22-.36l-.69-.29-.79-.66-.33-.27v-.07l.17.03-.04-.17.17.04.1-.1Zm-.05,5.96l-.12.12-.34.07-.25.13-.54.15-.59.34-.2.24-.35.32-.03.3-.17.29v.25l-.04.26.1.32.27.3.49.15.73.05.83-.03,1.19-.17.41-.02.39.05.41-.2.39-.07.17-.29-.27-.47-.07-.49-.05-.46-.2-.51-.69-.39-.69-.2-.74-.05Z"/>
        <path class="cls-2" d="m124.5,89.75c.02.43.03.85.04,1.27v.36c0,.12.03.31.1.56l.03.79s.05.05.05.07c0,.02-.01.1-.05.24-.02.13-.03.29-.03.49l.03.46v.2l-.17.14.13.03-.24.9h-.06l-.24-.2-.1.34h-.36c-.15.05-.32.24-.52.59-.19.35-.37.52-.54.52-.07,0-.16-.03-.27-.08-.11-.05-.24-.07-.39-.09l-.66-.07-.1-.73v-.59l-.12-.59-.03-.96s-.03-.16-.08-.4c-.06-.26-.08-.53-.08-.81,0-.07-.03-.27-.1-.61-.07-.34-.1-.56-.1-.68l-.29-1.38-.2-1.49-.41-1.62c-.13-.61-.24-1.27-.32-1.98-.08-.72-.16-1.17-.24-1.35l-.2-.69h-.22c-.1-.05-.2-.13-.29-.22-.08-.1-.13-.18-.17-.24-.02-.07-.04-.12-.05-.15-.24,0-.5-.14-.78-.42l.78-.17.83-.1.1.1c.29-.15.59-.22.9-.22.14,0,.31.02.49.05v.17l1.82-.22-.07.22.17.13.12.34.21.03v.15h.13l.52.96.04.33.24.56.07.36c.55-.65.96-1.11,1.25-1.39.49-.43,1.09-.8,1.79-1.12.7-.32,1.3-.5,1.81-.54l.07.17c.2,0,.34.05.41.1.07.05.15.17.25.37h.1l.07.19-.07.9-.27.07-.07.33-.56.15c-.34-.07-.65-.23-.93-.49l-.09.03-.57-.37-.29.24-.37.2s-.11.08-.25.2c-.14.11-.42.38-.86.81l-.03.14-.24.3v.2l-.1.49-.25.36c0,.36-.06.82-.2,1.38-.06.14-.1.27-.1.41,0,.1.04.42.13.96l.07,1.6Z"/>
      </g>
      <g>
        <path class="cls-2" d="m61.14,28.36c.06.07.12.11.17.12h.19c.06,0,.12.04.16.11h.13l.06.05c.14-.04.36-.07.65-.08.3-.03.48-.04.54-.04h.29c.09.03.19.05.3.05-.05,0,.27-.02.96-.05l1.72.28.72.03c.21,0,.35.02.42.05.07.04.11.12.11.26l-.44.19s-.09.03-.17.1c-.08.06-.13.09-.13.09h-.43l-.58.16s-.15.08-.39.11c-.24.03-.42.05-.53.07h-.34c-.25,0-.46.02-.62.05-.15.03-.44.05-.87.06l-.16.08v.42l-.08.24.11.66s-.01.1-.04.18c-.03.08-.04.18-.04.3l-.12.58.05.64.07.06v.73l-.09,1.16-.08.35.05.5-.22.56.16.63-.05.06v.33l-.22.42c-.03.05-.05.28-.05.66,0,0,.01.03.04.11.04.07.07.18.09.31.04.13.06.26.06.38.02.38.03.56.03.55,0,.09,0,.15-.03.19v.31l-.11.16v.37l-.26.36-.16.13h-.19c-.18,0-.32-.24-.42-.71l-.05-.81.08-1.43-.06-.89-.19-.94-.03-.72-.1-1.05.18-.8c0-.05-.01-.15-.03-.3-.02-.14-.03-.27-.03-.38,0-.16.02-.33.05-.51l.11-.8-.06-1.47.08-.5-.47-.16-.56.06-1.24.47c-.3.09-.68.13-1.14.13l-.27.13-.39-.13-.16-.19c0-.07.01-.13.01-.19,0-.06.01-.1.01-.12,0-.03.01-.06.01-.09,0-.06-.03-.13-.09-.23l-.15-.89v-.45l.26-.05.16.39c.3.07.51.11.64.11.01,0,.33-.05.95-.13l.77-.06.61-.11c0-.06.04-.1.12-.1.04,0,.11.01.22.03.11.02.19.03.25.03.14,0,.23-.06.26-.16Z"/>
        <path class="cls-2" d="m69.09,25.76c.43.08.81.14,1.18.18.37.04.57.07.59.09l.3.19.26.1.72.55s.07.17.18.46c.12.29.21.46.27.53.08.21.12.56.12,1.04,0,.24,0,.47-.01.69v.72l-.19,1.46-.14,1.66v1.08l-.12.3-.16,1.08v.17c.34-.23.67-.35,1-.35.23,0,.5.06.8.18l.02.28.23.25.11.31c.04.09.08.18.11.26.04.07.12.22.24.43l.09.25.03.17.16.19v.19l.08.84-.05.47.05.27-.08.22h.03l-.03.71.08.08-.08.08.11.16-.03.2.03.03.05.35h.14l.53-.3.36.03v.08h.08l-.05.11s.05.12.05.24l.05.26h-.05c-.07.14-.19.22-.37.22l-.32.08-.03-.08h-.29l-.53-.35-.38-.2c-.12-.07-.24-.19-.38-.35-.13-.16-.21-.35-.26-.55-.12-.3-.2-.52-.23-.66-.02-.14-.03-.4-.03-.78l.06-1.11v-.72c0-.38-.07-.86-.19-1.46l-.64.35-.22.19-.21.12-.35.38c-.13.24-.34.53-.65.86,0,.14-.05.27-.13.39-.15.39-.32.75-.53,1.09.02.07.02.15.02.23,0,.09,0,.15-.02.19v.14l-.27.68h-.05c.03.09.05.15.05.18,0,.1-.09.31-.26.62l.05.05-.08.05v.16c-.05.01-.1.03-.15.07-.04.03-.07.05-.09.05-.58,0-.87-.36-.87-1.08,0-.06,0-.16-.02-.28-.02-.13-.03-.22-.03-.27l-.11-1.17v-.55c-.04-.21-.07-.4-.11-.57-.04-.16-.06-.32-.08-.47-.02-.16-.03-.39-.05-.7-.03-.09-.08-.65-.12-1.69-.03-.14-.06-.37-.07-.69,0-.33-.01-1.2-.01-2.61l.03-1.43.12-1.56v-1.27l-.07-.94v-.83l.42.13.36-.13Z"/>
        <path class="cls-2" d="m82.15,31.02c.45.16.83.37,1.14.62.3.25.46.48.46.68v.24c.15.24.23.46.23.65l-.23.58c.11.1.18.28.23.53l-.31.03-.27-.2-.26-.03-.16-.08h-2.74c-.07.29-.11.75-.11,1.35v.76l.2.72.24.5.16.22.2.11.08.18c0,.05.1.13.31.21.21.09.39.14.54.14h.55l1.06-.11.64-.24c.05.09.08.17.08.24,0,.1-.15.22-.45.38-.29.15-.64.28-1.04.39-.15,0-.28.06-.39.18l-.11-.08c-.19.07-.31.16-.36.27h-.06l-.13.36c-.13-.18-.25-.29-.36-.33-.11-.04-.31-.07-.61-.07l-.29-.16-.18.02-.08-.11-.3.08-.17.16-.32-.14-.29.14-.27.39c-.29-.13-.47-.21-.54-.27-.06-.06-.23-.25-.49-.57-.19-.14-.36-.51-.5-1.11s-.21-1.19-.21-1.8.13-1.34.38-2.19l.62-1.11.16-.05.27-.38.55-.45.31-.16.08-.15c.8-.34,1.32-.51,1.55-.51-.03,0,.37.05,1.19.17Zm-1.77,2.57l2.54.08.11-.19c-.07-.3-.23-.56-.47-.76-.23-.2-.47-.3-.72-.3-.43,0-.78.09-1.05.26-.27.17-.41.41-.41.72v.19Z"/>
      </g>
    </g>
  </g>
</svg>